<?xml version="1.0" encoding="utf-8"?>
<svg version="1.1" xmlns="http://www.w3.org/2000/svg" >  <defs><linearGradient id="grad1" gradientTransform="rotate(45)" x1="0%" y1="0%" x2="100%" y2="0%"><stop offset="0%" style="stop-color:rgb(246,198,5);stop-opacity:1" /><stop offset="100%" style="stop-color:rgb(246,139,0);stop-opacity:1" /></linearGradient><linearGradient id="grad2" gradientTransform="rotate(45)" x1="0%" y1="0%" x2="100%" y2="0%"><stop offset="0%" style="stop-color:rgb(246,139,0);stop-opacity:1" /><stop offset="100%" style="stop-color:rgb(132,0,0);stop-opacity:1" /></linearGradient></defs>width="2000" height="1000">

<circle cx="225" cy="85" r="5" fill="none" stroke="black" stroke-width="10" />
<line x1="225" y1="85" x2="225" y2="85" stroke="red" />
<text x="230" y="70" fill="black" >0</text>
<circle cx="175" cy="170" r="5" fill="none" stroke="black" stroke-width="10" />
<line x1="175" y1="170" x2="225" y2="85" stroke="red" />
<text x="180" y="155" fill="black" >1</text>
<circle cx="125" cy="255" r="5" fill="none" stroke="black" stroke-width="10" />
<line x1="125" y1="255" x2="175" y2="170" stroke="red" />
<text x="130" y="240" fill="black" >3</text>
<circle cx="225" cy="255" r="5" fill="none" stroke="black" stroke-width="10" />
<line x1="225" y1="255" x2="125" y2="255" stroke="red" />
<text x="230" y="240" fill="black" >4</text>
<circle cx="275" cy="170" r="5" fill="none" stroke="black" stroke-width="10" />
<line x1="275" y1="170" x2="225" y2="255" stroke="red" />
<text x="280" y="155" fill="black" >2</text>
<circle cx="75" cy="340" r="5" fill="none" stroke="black" stroke-width="10" />
<line x1="75" y1="340" x2="125" y2="255" stroke="red" />
<text x="80" y="325" fill="black" >6</text>
<circle cx="175" cy="340" r="5" fill="none" stroke="black" stroke-width="10" />
<line x1="175" y1="340" x2="225" y2="255" stroke="red" />
<text x="180" y="325" fill="black" >7</text>
<circle cx="325" cy="255" r="5" fill="none" stroke="black" stroke-width="10" />
<line x1="325" y1="255" x2="275" y2="170" stroke="red" />
<text x="330" y="240" fill="black" >5</text>
<circle cx="275" cy="340" r="5" fill="none" stroke="black" stroke-width="10" />
<line x1="275" y1="340" x2="325" y2="255" stroke="red" />
<text x="280" y="325" fill="black" >8</text>
<circle cx="375" cy="340" r="5" fill="none" stroke="black" stroke-width="10" />
<line x1="375" y1="340" x2="325" y2="255" stroke="red" />
<text x="380" y="325" fill="black" >9</text>
<text x="50" y="50" fill="red" >Poids de l'arbre de poids minimum :</text>
<text x="285" y="50" fill="red" >39</text>


</svg>
