<?xml version="1.0" encoding="utf-8"?>
<svg version="1.1" xmlns="http://www.w3.org/2000/svg" >  <defs><linearGradient id="grad1" gradientTransform="rotate(45)" x1="0%" y1="0%" x2="100%" y2="0%"><stop offset="0%" style="stop-color:rgb(246,198,5);stop-opacity:1" /><stop offset="100%" style="stop-color:rgb(246,139,0);stop-opacity:1" /></linearGradient><linearGradient id="grad2" gradientTransform="rotate(45)" x1="0%" y1="0%" x2="100%" y2="0%"><stop offset="0%" style="stop-color:rgb(246,139,0);stop-opacity:1" /><stop offset="100%" style="stop-color:rgb(132,0,0);stop-opacity:1" /></linearGradient></defs>width="2000" height="1000">

<circle cx="100" cy="100" r="5" fill="none" stroke="black" stroke-width="10" />
<line x1="100" y1="100" x2="100" y2="100" stroke="red" />
<text x="105" y="85" fill="black" >0</text>
<circle cx="100" cy="200" r="5" fill="none" stroke="black" stroke-width="10" />
<line x1="100" y1="200" x2="100" y2="100" stroke="red" />
<text x="105" y="185" fill="black" >2</text>
<circle cx="200" cy="100" r="5" fill="none" stroke="black" stroke-width="10" />
<line x1="200" y1="100" x2="100" y2="200" stroke="red" />
<text x="205" y="85" fill="black" >1</text>
<circle cx="200" cy="200" r="5" fill="none" stroke="black" stroke-width="10" />
<line x1="200" y1="200" x2="200" y2="100" stroke="red" />
<text x="205" y="185" fill="black" >3</text>
<circle cx="200" cy="200" r="5" fill="none" stroke="black" stroke-width="10" />
<line x1="200" y1="200" x2="200" y2="100" stroke="red" />
<text x="205" y="185" fill="black" >3</text>
<circle cx="200" cy="100" r="5" fill="none" stroke="black" stroke-width="10" />
<line x1="200" y1="100" x2="200" y2="200" stroke="red" />
<text x="205" y="85" fill="black" >1</text>
<circle cx="200" cy="200" r="5" fill="none" stroke="black" stroke-width="10" />
<line x1="200" y1="200" x2="200" y2="100" stroke="red" />
<text x="205" y="185" fill="black" >3</text>
<circle cx="200" cy="100" r="5" fill="none" stroke="black" stroke-width="10" />
<line x1="200" y1="100" x2="200" y2="200" stroke="red" />
<text x="205" y="85" fill="black" >1</text>
<circle cx="200" cy="200" r="5" fill="none" stroke="black" stroke-width="10" />
<line x1="200" y1="200" x2="200" y2="100" stroke="red" />
<text x="205" y="185" fill="black" >3</text>
<circle cx="200" cy="100" r="5" fill="none" stroke="black" stroke-width="10" />
<line x1="200" y1="100" x2="200" y2="200" stroke="red" />
<text x="205" y="85" fill="black" >1</text>
<text x="50" y="50" fill="red" >Poids de l'arbre de poids minimum :</text>
<text x="285" y="50" fill="red" >613</text>


</svg>
